<svg xmlns="http://www.w3.org/2000/svg" version="1.1" viewBox="-5.0 -10.0 110.0 110.0">
 <g fill="currentColor" fill-rule="evenodd">
  <path d="m50 93.75c24.148 0 43.75-19.602 43.75-43.75s-19.602-43.75-43.75-43.75-43.75 19.602-43.75 43.75 19.602 43.75 43.75 43.75zm0-6.25c-20.695 0-37.5-16.805-37.5-37.5s16.805-37.5 37.5-37.5 37.5 16.805 37.5 37.5-16.805 37.5-37.5 37.5z"/>
  <path d="m38.387 31.5c13.215 13.219 11.438 11.441 17.434 17.441 0.29297 0.29297 0.46094 0.69141 0.46094 1.1016 0 0.41406-0.16797 0.8125-0.46094 1.1055-5.8359 5.8359-17.344 17.348-17.344 17.348-1.2227 1.2148-1.2227 3.1992 0 4.418 1.2227 1.2227 3.1992 1.2227 4.4219 0 0 0 11.508-11.504 17.344-17.348 1.4648-1.4648 2.2852-3.4492 2.2852-5.5234 0-2.0703-0.82031-4.0547-2.2852-5.5234-6-5.9961-4.2266-4.2227-17.438-17.438-1.2188-1.2188-3.1992-1.2188-4.418 0-1.2188 1.2227-1.2188 3.2031 0 4.418z"/>
 </g>
</svg>