<svg xmlns="http://www.w3.org/2000/svg" version="1.1" viewBox="-5.0 -10.0 110.0 110.0">
 <g fill="currentColor" fill-rule="evenodd">
  <path d="m50 93.75c24.148 0 43.75-19.602 43.75-43.75s-19.602-43.75-43.75-43.75-43.75 19.602-43.75 43.75 19.602 43.75 43.75 43.75zm0-6.25c-20.695 0-37.5-16.805-37.5-37.5s16.805-37.5 37.5-37.5 37.5 16.805 37.5 37.5-16.805 37.5-37.5 37.5z" />
  <path d="m57.195 27.082c-13.211 13.215-11.438 11.441-17.438 17.438-1.4648 1.4688-2.2852 3.4531-2.2852 5.5234 0 2.0742 0.82031 4.0586 2.2852 5.5234 5.8359 5.8438 17.344 17.348 17.344 17.348 1.2227 1.2227 3.1992 1.2227 4.4219 0 1.2227-1.2188 1.2227-3.2031 0-4.418 0 0-11.508-11.512-17.344-17.348-0.29297-0.29297-0.46094-0.69141-0.46094-1.1055 0-0.41016 0.16797-0.80859 0.46094-1.1016 5.9961-6 4.2188-4.2227 17.434-17.441 1.2188-1.2148 1.2188-3.1953 0-4.418-1.2188-1.2188-3.1992-1.2188-4.418 0z"/>
 </g>
</svg>